<?xml version="1.0" encoding="utf-8"?>
<!-- Generator: Adobe Illustrator 16.2.1, SVG Export Plug-In . SVG Version: 6.00 Build 0)  -->
<!DOCTYPE svg PUBLIC "-//W3C//DTD SVG 1.1//EN" "http://www.w3.org/Graphics/SVG/1.1/DTD/svg11.dtd">
<svg version="1.1" id="Layer_1" xmlns="http://www.w3.org/2000/svg" xmlns:xlink="http://www.w3.org/1999/xlink" x="0px" y="0px"
	 width="160px" height="90px" viewBox="0 0 160 90" enable-background="new 0 0 160 90" xml:space="preserve">
<rect fill="#EDEDED" width="160" height="90"/>
<g id="vector">
	<g id="space">
		<g id="Shape">
			<polygon fill="#FFFFFF" points="83.6621094,50.3554688 78.7587891,38.6660156 76.1728516,38.6660156 71.2480469,50.3554688
				73.8554688,50.3554688 77.4550781,41.7480469 81.0761719,50.3554688 			"/>
			<path fill="#FFFFFF" d="M58.234375,50.4794922c-1.7587891,0-3.5380859-0.6210938-4.9238281-1.8623047l1.5097656-1.7998047
				c1.0351562,0.8681641,2.1318359,1.4072266,3.4550781,1.4072266c1.0351562,0,1.6767578-0.4140625,1.6767578-1.0976562v-0.0410156
				c0-0.6416016-0.3935547-0.9716797-2.3388672-1.46875c-2.3378906-0.5996094-3.8476562-1.2412109-3.8476562-3.5380859v-0.0410156
				c0-2.1103516,1.6962891-3.4970703,4.0546875-3.4970703c1.6972656,0,3.1240234,0.5380859,4.3037109,1.46875l-1.3242188,1.9248047
				c-1.0341797-0.703125-2.0478516-1.1376953-3.0205078-1.1376953s-1.4892578,0.4550781-1.4892578,1.0136719v0.0205078
				c0,0.765625,0.4960938,1.0136719,2.5029297,1.53125c2.3583984,0.6201172,3.6826172,1.46875,3.6826172,3.4755859v0.0410156
				C62.4960938,49.1757812,60.7382812,50.4794922,58.234375,50.4794922z"/>
			<path fill="#FFFFFF" d="M68.1240234,46.8173828h-1.9443359v3.4970703h-2.5449219V38.7070312h4.7373047
				c2.7724609,0,4.4482422,1.6347656,4.4482422,4.0136719v0.0410156
				C72.7998047,45.4316406,70.7314453,46.8173828,68.1240234,46.8173828z M70.2138672,42.7617188
				c0-1.1376953-0.7861328-1.7578125-2.0693359-1.7578125h-1.9648438v3.5371094h2.0273438
				c1.2822266,0,2.0273438-0.765625,2.0273438-1.7578125v-0.0214844H70.2138672z"/>
			<path fill="#FFFFFF" d="M88.9589844,50.5C85.5449219,50.5,83,47.8730469,83,44.5410156V44.5c0-3.2900391,2.4833984-6,6.0419922-6
				c2.1923828,0,3.4960938,0.7246094,4.5712891,1.7998047L92,42.1826172
				c-0.8896484-0.8066406-1.7998047-1.3037109-2.9580078-1.3037109c-1.9658203,0-3.3730469,1.6347656-3.3730469,3.6210938v0.0410156
				c0,1.9863281,1.3867188,3.6416016,3.3730469,3.6416016c1.3242188,0,2.1308594-0.5380859,3.0410156-1.3652344l1.6132812,1.6337891
				C92.5380859,49.7138672,91.1933594,50.5,88.9589844,50.5z"/>
			<polygon fill="#FFFFFF" points="95.0419922,50.3144531 95.0419922,38.7070312 101.9716797,38.7070312 101.9716797,40.9824219
				97.5654297,40.9824219 97.5654297,43.3417969 101.2275391,43.3417969 101.2275391,45.6171875 97.5654297,45.6171875
				97.5654297,48.0380859 102.0556641,48.0380859 102.0556641,50.3144531 			"/>
			<polygon fill="#FFFFFF" points="103.3173828,38.6660156 104.1240234,38.6660156 104.1240234,39.4931641 103.3173828,39.4931641
							"/>
			<path fill="#FFFFFF" d="M103.2548828,41.3144531c0-0.8076172,0.6210938-1.4072266,1.4072266-1.4072266l0,0
				c0.765625,0,1.4072266,0.5996094,1.4072266,1.4267578c0,0.5175781-0.1660156,0.828125-0.4560547,1.0761719l-0.4960938-0.4755859
				c0.1865234-0.1660156,0.2900391-0.3515625,0.2900391-0.6201172c0-0.3935547-0.3310547-0.6630859-0.7451172-0.6630859l0,0
				c-0.4140625,0-0.7451172,0.2695312-0.7451172,0.6826172c0,0.2490234,0.1035156,0.4345703,0.2900391,0.6210938
				l-0.4550781,0.4550781C103.4619141,42.1621094,103.2548828,41.8515625,103.2548828,41.3144531z"/>
			<path fill="#FFFFFF" d="M103.2548828,44.1894531c0-0.8476562,0.6210938-1.46875,1.4072266-1.46875l0,0
				c0.7861328,0,1.4072266,0.6210938,1.4072266,1.46875c0,0.8486328-0.6210938,1.46875-1.4072266,1.46875l0,0
				C103.8759766,45.6582031,103.2548828,45.0175781,103.2548828,44.1894531z M104.6621094,44.8925781
				c0.3935547,0,0.7451172-0.2890625,0.7451172-0.703125c0-0.4335938-0.3310547-0.703125-0.7451172-0.703125l0,0
				c-0.3935547,0-0.7451172,0.2890625-0.7451172,0.703125C103.9169922,44.6240234,104.2480469,44.8925781,104.6621094,44.8925781
				L104.6621094,44.8925781z"/>
			<path fill="#FFFFFF" d="M103.3173828,49.5683594h1.5097656c0.3730469,0,0.5585938-0.1650391,0.5585938-0.4541016
				c0-0.2900391-0.1855469-0.4765625-0.5585938-0.4765625h-1.5097656v-0.7646484h1.5097656
				c0.3730469,0,0.5585938-0.1660156,0.5585938-0.4560547s-0.1855469-0.4550781-0.5585938-0.4550781h-1.5097656v-0.7646484
				h2.7099609v0.7646484h-0.3925781c0.2275391,0.1865234,0.4345703,0.4140625,0.4345703,0.8066406
				c0,0.3525391-0.1660156,0.6210938-0.4345703,0.765625c0.2685547,0.2275391,0.4345703,0.5175781,0.4345703,0.8896484
				c0,0.5800781-0.3515625,0.9101562-0.9931641,0.9101562h-1.7587891V49.5683594L103.3173828,49.5683594z"/>
		</g>
	</g>
</g>
</svg>
